<svg xmlns="http://www.w3.org/2000/svg" viewBox="0 0 200 50">
  <!-- Leaf icon -->
  <g transform="translate(5, 5)">
    <path d="M18 2C10 2 2 10 2 22c0 8 4 14 10 17l1-2c-5-3-8-8-8-15C5 12 11 6 18 5c4 0 8 2 11 5-1 10-6 18-14 22l1 2c10-5 16-14 17-26C33 8 28 2 18 2z" fill="#2e8b57"/>
    <path d="M18 5c-1 4-2 9-2 14 0 5 1 9 3 13l2-1c-2-4-3-8-3-12 0-5 1-10 3-14h-3z" fill="#3cb371"/>
  </g>
  <!-- Text -->
  <text x="46" y="36" font-family="Arial, Helvetica, sans-serif" font-size="32" font-weight="bold" fill="#333333">Altru</text>
</svg>
